<svg xmlns="http://www.w3.org/2000/svg" version="1.1" xmlns:xlink="http://www.w3.org/1999/xlink" xmlns:svgjs="http://svgjs.dev/svgjs" width="1500" height="284" viewBox="0 0 1500 284"><g transform="matrix(1,0,0,1,-0.9090909090908781,0.2407949698130949)"><svg viewBox="0 0 396 75" data-background-color="#242f2e" preserveAspectRatio="xMidYMid meet" height="284" width="1500" xmlns="http://www.w3.org/2000/svg" xmlns:xlink="http://www.w3.org/1999/xlink"><g id="tight-bounds" transform="matrix(1,0,0,1,0.2400000000000091,-0.06359022090134658)"><svg viewBox="0 0 395.52 75.12683953585677" height="75.12683953585677" width="395.52"><g><svg viewBox="0 0 520.7866672210383 98.92055112441493" height="75.12683953585677" width="395.52"><g transform="matrix(1,0,0,1,125.26666722103839,9.187091334795234)"><svg viewBox="0 0 395.52 80.54636845482446" height="80.54636845482446" width="395.52"><g id="textblocktransform"><svg viewBox="0 0 395.52 80.54636845482446" height="80.54636845482446" width="395.52" id="textblock"><g><rect width="163.310208" height="5.0321081744550815" y="72.24369569560957" x="232.209792" fill="black" data-fill-palette-color="tertiary"></rect></g><g><svg viewBox="0 0 395.52 55.80007306253805" height="55.80007306253805" width="395.52"><g transform="matrix(1,0,0,1,0,0)"><svg width="395.52" viewBox="5.03 -39.11 281.37 39.6" height="55.80007306253805" data-palette-color="#07aadc"><g class="wordmark-text-0" data-fill-palette-color="primary" id="text-0"><path d="M5.03 0L5.03-35.77 17.75-35.77Q22.46-35.77 26.05-34.5 29.64-33.23 32.06-30.99 34.47-28.76 35.71-25.71 36.94-22.66 36.94-19.09L36.94-19.09Q36.94-16.85 36.44-14.55 35.94-12.26 34.89-10.14 33.84-8.03 32.23-6.18 30.62-4.32 28.38-2.94 26.15-1.56 23.28-0.78 20.41 0 16.87 0L16.87 0 5.03 0ZM11.08-31.47L11.08-4.3 17.77-4.3Q21.04-4.3 23.46-5.38 25.88-6.47 27.47-8.34 29.05-10.21 29.83-12.73 30.62-15.26 30.62-18.16L30.62-18.16Q30.62-21.34 29.71-23.8 28.81-26.27 27.06-27.98 25.32-29.69 22.78-30.58 20.24-31.47 16.99-31.47L16.99-31.47 11.08-31.47ZM65.5-5.32L65.5-2.37Q64.43-1.61 63.18-1.07 61.94-0.54 60.62-0.18 59.3 0.17 57.99 0.33 56.69 0.49 55.52 0.49L55.52 0.49Q52.81 0.49 50.47-0.34 48.14-1.17 46.42-2.78 44.7-4.39 43.72-6.75 42.75-9.11 42.75-12.16L42.75-12.16Q42.75-15.41 43.85-18.04 44.94-20.68 46.79-22.52 48.63-24.37 51.06-25.37 53.49-26.37 56.13-26.37L56.13-26.37Q58.32-26.37 60.21-25.65 62.11-24.93 63.49-23.51 64.87-22.09 65.65-19.97 66.43-17.85 66.43-15.04L66.43-15.04Q66.43-14.36 66.37-13.59 66.31-12.82 66.16-12.08L66.16-12.08 48.87-12.08Q48.87-10.11 49.57-8.59 50.27-7.08 51.54-6.07 52.81-5.05 54.59-4.53 56.37-4 58.52-4L58.52-4Q59.13-4 59.95-4.05 60.76-4.1 61.69-4.25 62.62-4.39 63.6-4.65 64.57-4.91 65.5-5.32L65.5-5.32ZM48.87-14.97L60.94-14.97Q60.94-16.75 60.48-18.09 60.03-19.43 59.25-20.34 58.47-21.24 57.43-21.69 56.39-22.14 55.2-22.14L55.2-22.14Q53.85-22.14 52.71-21.61 51.56-21.07 50.71-20.1 49.85-19.14 49.36-17.82 48.87-16.5 48.87-14.97L48.87-14.97ZM79.63 0L70.38-25.88 76.92-25.88 82.03-8.98 83.08-4.49 83.56-4.49 84.57-8.98 89.74-25.88 95.33-25.88 86.05 0 79.63 0ZM99.04-1.22L100.09-5.66 100.53-5.93Q101.48-5.42 102.52-5 103.56-4.59 104.58-4.31 105.61-4.03 106.58-3.88 107.56-3.74 108.42-3.74L108.42-3.74Q110.64-3.74 111.89-4.66 113.15-5.59 113.15-7.03L113.15-7.03Q113.15-8.01 112.58-8.64 112-9.28 111.06-9.73 110.12-10.18 108.93-10.52 107.73-10.86 106.47-11.24 105.22-11.62 104.02-12.11 102.82-12.6 101.88-13.35 100.94-14.11 100.37-15.2 99.8-16.28 99.8-17.87L99.8-17.87Q99.8-19.65 100.57-21.22 101.34-22.78 102.76-23.91 104.19-25.05 106.23-25.71 108.27-26.37 110.81-26.37L110.81-26.37Q111.44-26.37 112.28-26.32 113.13-26.27 114.04-26.16 114.96-26.05 115.89-25.88 116.81-25.71 117.62-25.44L117.62-25.44 116.55-21.07 116.01-20.75Q115.28-21.12 114.43-21.39 113.59-21.66 112.75-21.81 111.91-21.97 111.11-22.06 110.32-22.14 109.71-22.14L109.71-22.14Q107.56-22.14 106.35-21.29 105.14-20.43 105.14-18.99L105.14-18.99Q105.14-17.99 105.73-17.35 106.32-16.7 107.26-16.25 108.2-15.8 109.42-15.47 110.64-15.14 111.89-14.76 113.15-14.38 114.37-13.89 115.59-13.4 116.53-12.65 117.47-11.89 118.06-10.79 118.64-9.69 118.64-8.08L118.64-8.08Q118.64-6.27 117.86-4.7 117.08-3.13 115.64-1.98 114.2-0.83 112.18-0.17 110.15 0.49 107.68 0.49L107.68 0.49Q105.66 0.49 103.39 0.05 101.12-0.39 99.04-1.22L99.04-1.22ZM132.17 0L126.11 0 126.11-35.77 132.17-35.77 132.17-20.75 149.94-20.75 149.94-35.77 156-35.77 156 0 149.94 0 149.94-16.46 132.17-16.46 132.17 0ZM165.1-8.62L165.1-25.88 171.01-25.88 171.01-9.55Q171.01-8.3 171.35-7.29 171.69-6.27 172.3-5.54 172.91-4.81 173.77-4.41 174.62-4 175.65-4L175.65-4Q176.53-4 177.37-4.3 178.21-4.59 178.99-5.07 179.77-5.54 180.48-6.16 181.19-6.79 181.82-7.47L181.82-7.47 181.82-25.88 187.73-25.88 187.73 0 182.95 0 182.07-4.37Q181.19-3.56 180.16-2.7 179.14-1.83 177.99-1.12 176.84-0.42 175.56 0.04 174.28 0.49 172.89 0.49L172.89 0.49Q171.3 0.49 169.88-0.15 168.47-0.78 167.41-1.95 166.34-3.13 165.72-4.81 165.1-6.49 165.1-8.62L165.1-8.62ZM195.88 0L195.88-25.88 200.67-25.88 201.5-18.16Q201.84-18.8 202.21-19.47 202.57-20.14 202.94-20.76 203.31-21.39 203.62-21.9 203.94-22.41 204.16-22.75L204.16-22.75Q204.67-23.51 205.32-24.18 205.97-24.85 206.72-25.33 207.48-25.81 208.36-26.09 209.24-26.37 210.26-26.37L210.26-26.37Q210.97-26.37 211.68-26.2 212.39-26.03 212.88-25.66L212.88-25.66 212.24-20.21Q211.8-20.34 211.22-20.37 210.63-20.41 210.17-20.41L210.17-20.41Q208.6-20.41 207.38-19.96 206.16-19.51 205.17-18.71 204.18-17.92 203.37-16.85 202.55-15.77 201.79-14.53L201.79-14.53 201.79 0 195.88 0ZM236.16-7.45L236.16-21.07Q234.58-21.75 233.32-21.95 232.06-22.14 231.26-22.14L231.26-22.14Q229.28-22.14 227.73-21.44 226.18-20.73 225.13-19.48 224.08-18.24 223.53-16.52 222.98-14.79 222.98-12.77L222.98-12.77Q222.98-10.94 223.44-9.35 223.91-7.76 224.76-6.57 225.62-5.37 226.83-4.69 228.03-4 229.52-4L229.52-4Q231.28-4 232.95-4.92 234.63-5.83 236.16-7.45L236.16-7.45ZM236.16-25.76L236.16-39.11 242.1-39.11 242.1 0 237.26 0 236.46-4.32Q235.6-3.54 234.59-2.7 233.58-1.86 232.38-1.15 231.18-0.44 229.8 0.02 228.42 0.49 226.86 0.49L226.86 0.49Q224.52 0.49 222.66-0.55 220.81-1.59 219.5-3.31 218.2-5.03 217.51-7.25 216.83-9.47 216.83-11.84L216.83-11.84Q216.83-14.97 217.96-17.63 219.1-20.29 221.08-22.23 223.05-24.17 225.71-25.27 228.38-26.37 231.43-26.37L231.43-26.37Q232.82-26.37 234.05-26.17 235.29-25.98 236.16-25.76L236.16-25.76ZM250.25 0L250.25-39.11 256.16-39.11 256.16 0 250.25 0ZM285.48-5.32L285.48-2.37Q284.4-1.61 283.16-1.07 281.91-0.54 280.59-0.18 279.27 0.17 277.97 0.33 276.66 0.49 275.49 0.49L275.49 0.49Q272.78 0.49 270.45-0.34 268.12-1.17 266.4-2.78 264.67-4.39 263.7-6.75 262.72-9.11 262.72-12.16L262.72-12.16Q262.72-15.41 263.82-18.04 264.92-20.68 266.76-22.52 268.61-24.37 271.03-25.37 273.46-26.37 276.1-26.37L276.1-26.37Q278.3-26.37 280.19-25.65 282.08-24.93 283.46-23.51 284.84-22.09 285.62-19.97 286.4-17.85 286.4-15.04L286.4-15.04Q286.4-14.36 286.34-13.59 286.28-12.82 286.13-12.08L286.13-12.08 268.85-12.08Q268.85-10.11 269.55-8.59 270.24-7.08 271.51-6.07 272.78-5.05 274.56-4.53 276.34-4 278.49-4L278.49-4Q279.1-4 279.92-4.05 280.74-4.1 281.67-4.25 282.59-4.39 283.57-4.65 284.55-4.91 285.48-5.32L285.48-5.32ZM268.85-14.97L280.91-14.97Q280.91-16.75 280.46-18.09 280.01-19.43 279.23-20.34 278.44-21.24 277.41-21.69 276.37-22.14 275.17-22.14L275.17-22.14Q273.83-22.14 272.68-21.61 271.54-21.07 270.68-20.1 269.83-19.14 269.34-17.82 268.85-16.5 268.85-14.97L268.85-14.97Z" fill="black" data-fill-palette-color="primary"></path></g></svg></g></svg></g><g transform="matrix(1,0,0,1,0,68.97313111084978)"><svg viewBox="0 0 232.209792 11.57323734397468" height="11.57323734397468" width="232.209792"><g transform="matrix(1,0,0,1,8,0)"><svg width="216.209792" viewBox="1.49 -37.5 709.62 37.99" height="11.57323734397468" data-palette-color="black"><path d="M13.48-10.72L20.51-35.55 23.97-35.55 21.97-25.95 14.4 0 10.96 0 13.48-10.72ZM6.23-35.55L11.82-11.18 13.48 0 10.08 0 1.49-35.55 6.23-35.55ZM33.06-11.21L38.53-35.55 43.29-35.55 34.69 0 31.3 0 33.06-11.21ZM24.49-35.55L31.32-10.72 33.81 0 30.37 0 23.07-25.95 21.09-35.55 24.49-35.55ZM52.34-37.5L52.34 0 47.78 0 47.78-37.5 52.34-37.5ZM51.27-14.23L49.36-14.31Q49.41-17.92 50.75-20.76 52.1-23.61 54.5-25.26 56.91-26.9 60.1-26.9L60.1-26.9Q62.72-26.9 64.61-25.94 66.5-24.98 67.54-22.88 68.58-20.78 68.58-17.31L68.58-17.31 68.58 0 64.01 0 64.01-17.36Q64.01-19.43 63.41-20.7 62.81-21.97 61.64-22.55 60.47-23.12 58.76-23.12L58.76-23.12Q57.08-23.12 55.71-22.41 54.34-21.7 53.34-20.46 52.34-19.21 51.8-17.61 51.27-16.02 51.27-14.23L51.27-14.23ZM86.3 0.49L86.3 0.49Q82.61 0.49 79.89-1.16 77.17-2.81 75.67-5.69 74.16-8.57 74.16-12.28L74.16-12.28 74.16-13.33Q74.16-17.63 75.81-20.67 77.46-23.71 80.11-25.31 82.76-26.9 85.71-26.9L85.71-26.9Q89.52-26.9 91.93-25.21 94.33-23.51 95.47-20.59 96.6-17.68 96.6-13.99L96.6-13.99 96.6-11.96 76.87-11.96 76.87-15.63 92.04-15.63 92.04-15.97Q91.94-17.72 91.33-19.4 90.72-21.07 89.37-22.16 88.03-23.24 85.71-23.24L85.71-23.24Q83.66-23.24 82.09-22.08 80.51-20.92 79.62-18.71 78.73-16.5 78.73-13.33L78.73-13.33 78.73-12.28Q78.73-9.77 79.66-7.7 80.59-5.64 82.34-4.41 84.1-3.17 86.54-3.17L86.54-3.17Q88.94-3.17 90.6-4.15 92.26-5.13 93.5-6.76L93.5-6.76 96.26-4.61Q94.99-2.66 92.61-1.09 90.23 0.49 86.3 0.49ZM106.41-22.27L106.41 0 101.85 0 101.85-26.42 106.29-26.42 106.41-22.27ZM114.64-26.56L114.64-22.39Q114.06-22.51 113.55-22.55 113.05-22.58 112.42-22.58L112.42-22.58Q110.34-22.58 108.92-21.73 107.49-20.87 106.71-19.37 105.93-17.87 105.73-15.94L105.73-15.94 104.44-15.21Q104.44-18.41 105.29-21.06 106.14-23.71 107.96-25.31 109.78-26.9 112.64-26.9L112.64-26.9Q113.1-26.9 113.75-26.79 114.4-26.68 114.64-26.56L114.64-26.56ZM129.78 0.49L129.78 0.49Q126.09 0.49 123.37-1.16 120.64-2.81 119.14-5.69 117.64-8.57 117.64-12.28L117.64-12.28 117.64-13.33Q117.64-17.63 119.29-20.67 120.94-23.71 123.59-25.31 126.24-26.9 129.19-26.9L129.19-26.9Q133-26.9 135.4-25.21 137.81-23.51 138.94-20.59 140.08-17.68 140.08-13.99L140.08-13.99 140.08-11.96 120.35-11.96 120.35-15.63 135.51-15.63 135.51-15.97Q135.41-17.72 134.8-19.4 134.19-21.07 132.85-22.16 131.51-23.24 129.19-23.24L129.19-23.24Q127.14-23.24 125.56-22.08 123.99-20.92 123.1-18.71 122.21-16.5 122.21-13.33L122.21-13.33 122.21-12.28Q122.21-9.77 123.13-7.7 124.06-5.64 125.82-4.41 127.58-3.17 130.02-3.17L130.02-3.17Q132.41-3.17 134.07-4.15 135.73-5.13 136.98-6.76L136.98-6.76 139.74-4.61Q138.47-2.66 136.09-1.09 133.71 0.49 129.78 0.49ZM156.55-12.92L156.55-13.48Q156.55-17.31 158.02-20.34 159.48-23.36 162.17-25.13 164.85-26.9 168.54-26.9L168.54-26.9Q172.28-26.9 174.99-25.13 177.69-23.36 179.15-20.34 180.6-17.31 180.6-13.48L180.6-13.48 180.6-12.92Q180.6-9.11 179.15-6.07 177.69-3.03 175-1.27 172.3 0.49 168.59 0.49L168.59 0.49Q164.88 0.49 162.18-1.27 159.48-3.03 158.02-6.07 156.55-9.11 156.55-12.92L156.55-12.92ZM161.12-13.48L161.12-12.92Q161.12-10.3 161.95-8.08 162.78-5.86 164.43-4.52 166.07-3.17 168.59-3.17L168.59-3.17Q171.08-3.17 172.73-4.52 174.37-5.86 175.2-8.08 176.03-10.3 176.03-12.92L176.03-12.92 176.03-13.48Q176.03-16.09 175.2-18.31 174.37-20.53 172.71-21.89 171.05-23.24 168.54-23.24L168.54-23.24Q166.07-23.24 164.41-21.89 162.75-20.53 161.94-18.31 161.12-16.09 161.12-13.48L161.12-13.48ZM186.26-37.5L190.83-37.5 190.83-5.13 190.44 0 186.26 0 186.26-37.5ZM208.65-13.43L208.65-12.92Q208.65-9.06 207.45-6.03 206.26-3 203.96-1.26 201.67 0.49 198.4 0.49L198.4 0.49Q195.03 0.49 192.78-1.04 190.53-2.56 189.29-5.36 188.04-8.15 187.65-11.99L187.65-11.99 187.65-14.36Q188.04-18.24 189.29-21.04 190.53-23.85 192.77-25.38 195-26.9 198.35-26.9L198.35-26.9Q201.67-26.9 203.96-25.22 206.26-23.54 207.45-20.5 208.65-17.46 208.65-13.43L208.65-13.43ZM204.08-12.92L204.08-13.43Q204.08-16.06 203.42-18.27 202.77-20.48 201.26-21.8 199.76-23.12 197.2-23.12L197.2-23.12Q195.51-23.12 194.26-22.53 193-21.95 192.12-20.96 191.24-19.97 190.69-18.71 190.14-17.46 189.88-16.11L189.88-16.11 189.88-10.18Q190.27-8.47 191.14-6.9 192.02-5.32 193.52-4.32 195.03-3.32 197.25-3.32L197.25-3.32Q199.69-3.32 201.19-4.63 202.69-5.93 203.39-8.11 204.08-10.28 204.08-12.92L204.08-12.92ZM229.72-7.01L229.72-7.01Q229.72-7.98 229.29-8.83 228.86-9.67 227.57-10.36 226.27-11.06 223.66-11.6L223.66-11.6Q220.73-12.21 218.6-13.15 216.46-14.09 215.3-15.55 214.14-17.02 214.14-19.19L214.14-19.19Q214.14-21.29 215.35-23.03 216.56-24.78 218.77-25.84 220.98-26.9 223.93-26.9L223.93-26.9Q227.1-26.9 229.36-25.79 231.62-24.68 232.82-22.81 234.01-20.95 234.01-18.68L234.01-18.68 229.45-18.68Q229.45-20.31 228.02-21.78 226.59-23.24 223.93-23.24L223.93-23.24Q222.07-23.24 220.92-22.67 219.76-22.09 219.23-21.2 218.71-20.31 218.71-19.34L218.71-19.34Q218.71-18.36 219.19-17.64 219.68-16.92 220.99-16.36 222.29-15.8 224.78-15.23L224.78-15.23Q228.03-14.5 230.13-13.48 232.23-12.45 233.26-10.96 234.28-9.47 234.28-7.32L234.28-7.32Q234.28-5.03 233.01-3.26 231.74-1.49 229.45-0.5 227.15 0.49 224.05 0.49L224.05 0.49Q220.56 0.49 218.14-0.76 215.73-2 214.48-3.97 213.24-5.93 213.24-8.13L213.24-8.13 217.8-8.13Q217.92-6.27 218.89-5.19 219.85-4.1 221.26-3.64 222.66-3.17 224.05-3.17L224.05-3.17Q225.91-3.17 227.17-3.67 228.42-4.17 229.07-5.04 229.72-5.91 229.72-7.01ZM251.25-26.42L251.25-22.97 236.94-22.97 236.94-26.42 251.25-26.42ZM241.75-32.84L246.32-32.84 246.32-6.54Q246.32-5.18 246.73-4.49 247.15-3.81 247.8-3.59 248.46-3.37 249.22-3.37L249.22-3.37Q249.78-3.37 250.4-3.47 251.03-3.56 251.32-3.64L251.32-3.64 251.34 0Q250.81 0.17 249.94 0.33 249.07 0.49 247.85 0.49L247.85 0.49Q246.19 0.49 244.8-0.17 243.41-0.83 242.58-2.38 241.75-3.93 241.75-6.57L241.75-6.57 241.75-32.84ZM272.07-4.52L272.07-18.12Q272.07-20.48 270.67-21.89 269.26-23.29 266.53-23.29L266.53-23.29Q264.84-23.29 263.56-22.71 262.28-22.12 261.57-21.17 260.86-20.21 260.86-19.09L260.86-19.09 256.3-19.09Q256.3-21 257.59-22.79 258.89-24.58 261.24-25.74 263.6-26.9 266.8-26.9L266.8-26.9Q269.68-26.9 271.9-25.93 274.12-24.95 275.38-22.99 276.64-21.02 276.64-18.07L276.64-18.07 276.64-5.76Q276.64-4.44 276.87-2.95 277.1-1.46 277.56-0.39L277.56-0.39 277.56 0 272.8 0Q272.46-0.78 272.27-2.09 272.07-3.39 272.07-4.52L272.07-4.52ZM272.85-16.02L272.9-12.84 268.36-12.84Q264.5-12.84 262.4-11.62 260.3-10.4 260.3-7.96L260.3-7.96Q260.3-6.05 261.58-4.74 262.87-3.42 265.33-3.42L265.33-3.42Q267.41-3.42 268.99-4.3 270.58-5.18 271.51-6.47 272.44-7.76 272.51-8.96L272.51-8.96 274.46-6.79Q274.29-5.76 273.53-4.52 272.78-3.27 271.52-2.14 270.26-1 268.54-0.26 266.82 0.49 264.67 0.49L264.67 0.49Q261.99 0.49 259.97-0.55 257.96-1.59 256.85-3.37 255.74-5.15 255.74-7.32L255.74-7.32Q255.74-11.6 258.96-13.81 262.18-16.02 267.63-16.02L267.63-16.02 272.85-16.02ZM294.31-3.17L294.31-3.17Q295.92-3.17 297.29-3.85 298.65-4.52 299.53-5.69 300.41-6.86 300.53-8.35L300.53-8.35 304.86-8.35Q304.73-6.01 303.27-3.99 301.8-1.98 299.46-0.74 297.12 0.49 294.31 0.49L294.31 0.49Q290.33 0.49 287.72-1.33 285.1-3.15 283.82-6.15 282.54-9.16 282.54-12.7L282.54-12.7 282.54-13.72Q282.54-17.29 283.83-20.28 285.13-23.27 287.74-25.09 290.35-26.9 294.31-26.9L294.31-26.9Q297.41-26.9 299.74-25.65 302.07-24.39 303.4-22.23 304.73-20.07 304.86-17.33L304.86-17.33 300.53-17.33Q300.41-18.97 299.62-20.31 298.83-21.66 297.47-22.45 296.12-23.24 294.31-23.24L294.31-23.24Q291.55-23.24 289.97-21.83 288.4-20.41 287.75-18.23 287.11-16.04 287.11-13.72L287.11-13.72 287.11-12.7Q287.11-10.38 287.74-8.18 288.38-5.98 289.95-4.58 291.53-3.17 294.31-3.17ZM314.86-37.5L314.86 0 310.3 0 310.3-37.5 314.86-37.5ZM333.05 0.49L333.05 0.49Q329.36 0.49 326.64-1.16 323.92-2.81 322.42-5.69 320.91-8.57 320.91-12.28L320.91-12.28 320.91-13.33Q320.91-17.63 322.56-20.67 324.21-23.71 326.86-25.31 329.51-26.9 332.46-26.9L332.46-26.9Q336.27-26.9 338.68-25.21 341.08-23.51 342.22-20.59 343.35-17.68 343.35-13.99L343.35-13.99 343.35-11.96 323.62-11.96 323.62-15.63 338.79-15.63 338.79-15.97Q338.69-17.72 338.08-19.4 337.47-21.07 336.12-22.16 334.78-23.24 332.46-23.24L332.46-23.24Q330.41-23.24 328.84-22.08 327.26-20.92 326.37-18.71 325.48-16.5 325.48-13.33L325.48-13.33 325.48-12.28Q325.48-9.77 326.41-7.7 327.34-5.64 329.09-4.41 330.85-3.17 333.29-3.17L333.29-3.17Q335.69-3.17 337.35-4.15 339.01-5.13 340.25-6.76L340.25-6.76 343.01-4.61Q341.74-2.66 339.36-1.09 336.98 0.49 333.05 0.49ZM363.98-7.01L363.98-7.01Q363.98-7.98 363.55-8.83 363.12-9.67 361.83-10.36 360.54-11.06 357.92-11.6L357.92-11.6Q354.99-12.21 352.86-13.15 350.72-14.09 349.56-15.55 348.4-17.02 348.4-19.19L348.4-19.19Q348.4-21.29 349.61-23.03 350.82-24.78 353.03-25.84 355.24-26.9 358.19-26.9L358.19-26.9Q361.37-26.9 363.62-25.79 365.88-24.68 367.08-22.81 368.28-20.95 368.28-18.68L368.28-18.68 363.71-18.68Q363.71-20.31 362.28-21.78 360.85-23.24 358.19-23.24L358.19-23.24Q356.34-23.24 355.18-22.67 354.02-22.09 353.49-21.2 352.97-20.31 352.97-19.34L352.97-19.34Q352.97-18.36 353.46-17.64 353.94-16.92 355.25-16.36 356.56-15.8 359.05-15.23L359.05-15.23Q362.29-14.5 364.39-13.48 366.49-12.45 367.52-10.96 368.54-9.47 368.54-7.32L368.54-7.32Q368.54-5.03 367.27-3.26 366.01-1.49 363.71-0.5 361.42 0.49 358.31 0.49L358.31 0.49Q354.82 0.49 352.41-0.76 349.99-2 348.74-3.97 347.5-5.93 347.5-8.13L347.5-8.13 352.06-8.13Q352.19-6.27 353.15-5.19 354.12-4.1 355.52-3.64 356.92-3.17 358.31-3.17L358.31-3.17Q360.17-3.17 361.43-3.67 362.68-4.17 363.33-5.04 363.98-5.91 363.98-7.01ZM391.34-21.17L391.34 0 386.78 0 386.78-26.42 391.1-26.42 391.34-21.17ZM390.41-14.23L388.29-14.31Q388.31-17.92 389.52-20.76 390.73-23.61 393.11-25.26 395.49-26.9 399.03-26.9L399.03-26.9Q402.74-26.9 405.16-24.73 407.58-22.56 407.58-17.6L407.58-17.6 407.58 0 403.01 0 403.01-17.38Q403.01-19.46 402.32-20.72 401.62-21.97 400.35-22.55 399.08-23.12 397.37-23.12L397.37-23.12Q395.39-23.12 394.06-22.41 392.73-21.7 391.93-20.46 391.12-19.21 390.77-17.61 390.41-16.02 390.41-14.23L390.41-14.23ZM407.53-16.72L404.48-15.8Q404.5-18.68 405.71-21.22 406.92-23.75 409.26-25.33 411.61-26.9 414.97-26.9L414.97-26.9Q417.81-26.9 419.78-25.9 421.76-24.9 422.79-22.8 423.81-20.7 423.81-17.36L423.81-17.36 423.81 0 419.25 0 419.25-17.41Q419.25-19.63 418.55-20.87 417.86-22.12 416.6-22.62 415.34-23.12 413.63-23.12L413.63-23.12Q412.14-23.12 411.01-22.61 409.87-22.09 409.1-21.2 408.33-20.31 407.93-19.17 407.53-18.02 407.53-16.72L407.53-16.72ZM441.61 0.49L441.61 0.49Q437.92 0.49 435.2-1.16 432.48-2.81 430.98-5.69 429.47-8.57 429.47-12.28L429.47-12.28 429.47-13.33Q429.47-17.63 431.12-20.67 432.77-23.71 435.42-25.31 438.07-26.9 441.02-26.9L441.02-26.9Q444.83-26.9 447.24-25.21 449.64-23.51 450.78-20.59 451.91-17.68 451.91-13.99L451.91-13.99 451.91-11.96 432.18-11.96 432.18-15.63 447.35-15.63 447.35-15.97Q447.25-17.72 446.64-19.4 446.03-21.07 444.68-22.16 443.34-23.24 441.02-23.24L441.02-23.24Q438.97-23.24 437.4-22.08 435.82-20.92 434.93-18.71 434.04-16.5 434.04-13.33L434.04-13.33 434.04-12.28Q434.04-9.77 434.97-7.7 435.9-5.64 437.65-4.41 439.41-3.17 441.85-3.17L441.85-3.17Q444.24-3.17 445.9-4.15 447.56-5.13 448.81-6.76L448.81-6.76 451.57-4.61Q450.3-2.66 447.92-1.09 445.54 0.49 441.61 0.49ZM468.14 0.49L468.14 0.49Q464.46 0.49 461.73-1.16 459.01-2.81 457.51-5.69 456.01-8.57 456.01-12.28L456.01-12.28 456.01-13.33Q456.01-17.63 457.66-20.67 459.31-23.71 461.95-25.31 464.6-26.9 467.56-26.9L467.56-26.9Q471.37-26.9 473.77-25.21 476.18-23.51 477.31-20.59 478.45-17.68 478.45-13.99L478.45-13.99 478.45-11.96 458.72-11.96 458.72-15.63 473.88-15.63 473.88-15.97Q473.78-17.72 473.17-19.4 472.56-21.07 471.22-22.16 469.88-23.24 467.56-23.24L467.56-23.24Q465.51-23.24 463.93-22.08 462.36-20.92 461.47-18.71 460.58-16.5 460.58-13.33L460.58-13.33 460.58-12.28Q460.58-9.77 461.5-7.7 462.43-5.64 464.19-4.41 465.95-3.17 468.39-3.17L468.39-3.17Q470.78-3.17 472.44-4.15 474.1-5.13 475.35-6.76L475.35-6.76 478.1-4.61Q476.83-2.66 474.45-1.09 472.07 0.49 468.14 0.49ZM494.8-26.42L494.8-22.97 480.49-22.97 480.49-26.42 494.8-26.42ZM485.3-32.84L489.87-32.84 489.87-6.54Q489.87-5.18 490.28-4.49 490.7-3.81 491.36-3.59 492.02-3.37 492.77-3.37L492.77-3.37Q493.34-3.37 493.96-3.47 494.58-3.56 494.87-3.64L494.87-3.64 494.9 0Q494.36 0.17 493.49 0.33 492.63 0.49 491.41 0.49L491.41 0.49Q489.75 0.49 488.36-0.17 486.96-0.83 486.13-2.38 485.3-3.93 485.3-6.57L485.3-6.57 485.3-32.84ZM527.83-7.01L527.83-7.01Q527.83-7.98 527.4-8.83 526.97-9.67 525.68-10.36 524.39-11.06 521.77-11.6L521.77-11.6Q518.84-12.21 516.71-13.15 514.57-14.09 513.41-15.55 512.25-17.02 512.25-19.19L512.25-19.19Q512.25-21.29 513.46-23.03 514.67-24.78 516.88-25.84 519.09-26.9 522.04-26.9L522.04-26.9Q525.22-26.9 527.47-25.79 529.73-24.68 530.93-22.81 532.13-20.95 532.13-18.68L532.13-18.68 527.56-18.68Q527.56-20.31 526.13-21.78 524.7-23.24 522.04-23.24L522.04-23.24Q520.19-23.24 519.03-22.67 517.87-22.09 517.34-21.2 516.82-20.31 516.82-19.34L516.82-19.34Q516.82-18.36 517.31-17.64 517.79-16.92 519.1-16.36 520.41-15.8 522.9-15.23L522.9-15.23Q526.14-14.5 528.24-13.48 530.34-12.45 531.37-10.96 532.39-9.47 532.39-7.32L532.39-7.32Q532.39-5.03 531.12-3.26 529.85-1.49 527.56-0.5 525.26 0.49 522.16 0.49L522.16 0.49Q518.67 0.49 516.26-0.76 513.84-2 512.59-3.97 511.35-5.93 511.35-8.13L511.35-8.13 515.91-8.13Q516.04-6.27 517-5.19 517.97-4.1 519.37-3.64 520.77-3.17 522.16-3.17L522.16-3.17Q524.02-3.17 525.28-3.67 526.53-4.17 527.18-5.04 527.83-5.91 527.83-7.01ZM537.08-12.92L537.08-13.48Q537.08-17.31 538.54-20.34 540.01-23.36 542.69-25.13 545.38-26.9 549.07-26.9L549.07-26.9Q552.8-26.9 555.51-25.13 558.22-23.36 559.67-20.34 561.13-17.31 561.13-13.48L561.13-13.48 561.13-12.92Q561.13-9.11 559.67-6.07 558.22-3.03 555.52-1.27 552.83 0.49 549.11 0.49L549.11 0.49Q545.4 0.49 542.71-1.27 540.01-3.03 538.54-6.07 537.08-9.11 537.08-12.92L537.08-12.92ZM541.64-13.48L541.64-12.92Q541.64-10.3 542.47-8.08 543.3-5.86 544.95-4.52 546.6-3.17 549.11-3.17L549.11-3.17Q551.61-3.17 553.25-4.52 554.9-5.86 555.73-8.08 556.56-10.3 556.56-12.92L556.56-12.92 556.56-13.48Q556.56-16.09 555.73-18.31 554.9-20.53 553.24-21.89 551.58-23.24 549.07-23.24L549.07-23.24Q546.6-23.24 544.94-21.89 543.28-20.53 542.46-18.31 541.64-16.09 541.64-13.48L541.64-13.48ZM571.74-37.5L571.74 0 567.18 0 567.18-37.5 571.74-37.5ZM595.11-6.1L595.11-26.42 599.67-26.42 599.67 0 595.33 0 595.11-6.1ZM595.96-11.67L597.86-11.72Q597.86-8.2 596.86-5.44 595.86-2.69 593.59-1.1 591.32 0.49 587.51 0.49L587.51 0.49Q583.63 0.49 581.24-1.81 578.85-4.1 578.85-9.38L578.85-9.38 578.85-26.42 583.41-26.42 583.41-9.33Q583.41-6.93 584.11-5.63 584.8-4.32 585.91-3.82 587.02-3.32 588.25-3.32L588.25-3.32Q591.13-3.32 592.81-4.43 594.5-5.54 595.23-7.45 595.96-9.35 595.96-11.67L595.96-11.67ZM617.61-26.42L617.61-22.97 603.31-22.97 603.31-26.42 617.61-26.42ZM608.12-32.84L612.68-32.84 612.68-6.54Q612.68-5.18 613.1-4.49 613.51-3.81 614.17-3.59 614.83-3.37 615.59-3.37L615.59-3.37Q616.15-3.37 616.77-3.47 617.39-3.56 617.69-3.64L617.69-3.64 617.71 0Q617.17 0.17 616.31 0.33 615.44 0.49 614.22 0.49L614.22 0.49Q612.56 0.49 611.17-0.17 609.78-0.83 608.95-2.38 608.12-3.93 608.12-6.57L608.12-6.57 608.12-32.84ZM627.82-26.42L627.82 0 623.25 0 623.25-26.42 627.82-26.42ZM622.91-33.45L622.91-33.45Q622.91-34.52 623.58-35.28 624.25-36.04 625.57-36.04L625.57-36.04Q626.89-36.04 627.58-35.28 628.28-34.52 628.28-33.45L628.28-33.45Q628.28-32.4 627.58-31.65 626.89-30.91 625.57-30.91L625.57-30.91Q624.25-30.91 623.58-31.65 622.91-32.4 622.91-33.45ZM633.84-12.92L633.84-13.48Q633.84-17.31 635.31-20.34 636.77-23.36 639.46-25.13 642.14-26.9 645.83-26.9L645.83-26.9Q649.57-26.9 652.28-25.13 654.99-23.36 656.44-20.34 657.89-17.31 657.89-13.48L657.89-13.48 657.89-12.92Q657.89-9.11 656.44-6.07 654.99-3.03 652.29-1.27 649.59 0.49 645.88 0.49L645.88 0.49Q642.17 0.49 639.47-1.27 636.77-3.03 635.31-6.07 633.84-9.11 633.84-12.92L633.84-12.92ZM638.41-13.48L638.41-12.92Q638.41-10.3 639.24-8.08 640.07-5.86 641.72-4.52 643.37-3.17 645.88-3.17L645.88-3.17Q648.37-3.17 650.02-4.52 651.67-5.86 652.5-8.08 653.33-10.3 653.33-12.92L653.33-12.92 653.33-13.48Q653.33-16.09 652.5-18.31 651.67-20.53 650.01-21.89 648.35-23.24 645.83-23.24L645.83-23.24Q643.37-23.24 641.7-21.89 640.04-20.53 639.23-18.31 638.41-16.09 638.41-13.48L638.41-13.48ZM668.12-20.78L668.12 0 663.55 0 663.55-26.42 667.87-26.42 668.12-20.78ZM667.04-14.23L665.14-14.31Q665.19-17.92 666.53-20.76 667.87-23.61 670.28-25.26 672.68-26.9 675.88-26.9L675.88-26.9Q678.49-26.9 680.39-25.94 682.28-24.98 683.32-22.88 684.35-20.78 684.35-17.31L684.35-17.31 684.35 0 679.79 0 679.79-17.36Q679.79-19.43 679.19-20.7 678.59-21.97 677.42-22.55 676.25-23.12 674.54-23.12L674.54-23.12Q672.85-23.12 671.49-22.41 670.12-21.7 669.12-20.46 668.12-19.21 667.58-17.61 667.04-16.02 667.04-14.23L667.04-14.23ZM706.54-7.01L706.54-7.01Q706.54-7.98 706.12-8.83 705.69-9.67 704.4-10.36 703.1-11.06 700.49-11.6L700.49-11.6Q697.56-12.21 695.42-13.15 693.29-14.09 692.13-15.55 690.97-17.02 690.97-19.19L690.97-19.19Q690.97-21.29 692.18-23.03 693.38-24.78 695.59-25.84 697.8-26.9 700.76-26.9L700.76-26.9Q703.93-26.9 706.19-25.79 708.45-24.68 709.64-22.81 710.84-20.95 710.84-18.68L710.84-18.68 706.28-18.68Q706.28-20.31 704.85-21.78 703.42-23.24 700.76-23.24L700.76-23.24Q698.9-23.24 697.74-22.67 696.58-22.09 696.06-21.2 695.53-20.31 695.53-19.34L695.53-19.34Q695.53-18.36 696.02-17.64 696.51-16.92 697.82-16.36 699.12-15.8 701.61-15.23L701.61-15.23Q704.86-14.5 706.96-13.48 709.06-12.45 710.08-10.96 711.11-9.47 711.11-7.32L711.11-7.32Q711.11-5.03 709.84-3.26 708.57-1.49 706.28-0.5 703.98 0.49 700.88 0.49L700.88 0.49Q697.39 0.49 694.97-0.76 692.55-2 691.31-3.97 690.06-5.93 690.06-8.13L690.06-8.13 694.63-8.13Q694.75-6.27 695.72-5.19 696.68-4.1 698.08-3.64 699.49-3.17 700.88-3.17L700.88-3.17Q702.74-3.17 703.99-3.67 705.25-4.17 705.9-5.04 706.54-5.91 706.54-7.01Z" opacity="1" transform="matrix(1,0,0,1,0,0)" fill="black" class="slogan-text-1" data-fill-palette-color="secondary" id="text-1"></path></svg></g></svg></g></svg></g></svg></g><g><svg viewBox="0 0 98.92055112441493 98.92055112441493" height="98.92055112441493" width="98.92055112441493"><g><svg></svg></g><g id="icon-0"><svg viewBox="0 0 98.92055112441493 98.92055112441493" height="98.92055112441493" width="98.92055112441493"><g><path d="M0 49.46c0-27.316 22.144-49.46 49.46-49.46 27.316 0 49.46 22.144 49.461 49.46 0 27.316-22.144 49.46-49.461 49.461-27.316 0-49.46-22.144-49.46-49.461zM49.46 93.888c24.537 0 44.428-19.891 44.428-44.428 0-24.537-19.891-44.428-44.428-44.428-24.537 0-44.428 19.891-44.428 44.428 0 24.537 19.891 44.428 44.428 44.428z" data-fill-palette-color="tertiary" fill="black" stroke="transparent"></path></g><g transform="matrix(1,0,0,1,21.847068183155045,31.457294765223278)"><svg viewBox="0 0 55.22641475810484 36.00596159396837" height="36.00596159396837" width="55.22641475810484"><g><svg xmlns:x="http://ns.adobe.com/Extensibility/1.0/" xmlns:i="http://ns.adobe.com/AdobeIllustrator/10.0/" xmlns:graph="http://ns.adobe.com/Graphs/1.0/" xmlns="http://www.w3.org/2000/svg" xmlns:xlink="http://www.w3.org/1999/xlink" xmlns:a="http://ns.adobe.com/AdobeSVGViewerExtensions/3.0/" version="1.1" x="0" y="0" viewBox="0 17.40189328022179 100 65.19699269213245" enable-background="new 0 0 100 100" xml:space="preserve" height="36.00596159396837" width="55.22641475810484" class="icon-cg-0" data-fill-palette-color="black" id="cg-0"><path d="M70.79 38.18l5.458-9.459-14.893-8.599c-9.7-5.599-22.125-2.279-27.729 7.43l3.25 1.877c2.583-4.484 8.317-6.02 12.804-3.432l4.867 2.808-11.725 20.31L41.2 48.181 26.199 74.158c-1.552 2.691-0.634 6.133 2.057 7.684 2.697 1.558 6.136 0.633 7.688-2.061l14.995-25.976-1.617-0.937 11.724-20.31L70.79 38.18z" fill="black" data-fill-palette-color="black"></path><path d="M20.633 63.435c-0.473 0-0.95-0.12-1.384-0.369L1.389 52.754C0.527 52.257 0 51.34 0 50.347s0.527-1.91 1.389-2.406l17.86-10.311c1.324-0.767 3.023-0.312 3.792 1.017 0.771 1.329 0.315 3.027-1.015 3.794L8.333 50.347l13.693 7.906c1.33 0.765 1.785 2.463 1.015 3.792C22.526 62.938 21.592 63.435 20.633 63.435z" fill="black" data-fill-palette-color="black"></path><path d="M79.361 66.212c-0.959 0-1.893-0.497-2.408-1.389-0.765-1.329-0.31-3.028 1.02-3.792l13.694-7.906L77.973 45.22c-1.329-0.768-1.784-2.466-1.02-3.794 0.771-1.329 2.468-1.784 3.797-1.017l17.861 10.311c0.857 0.497 1.389 1.414 1.389 2.406s-0.531 1.91-1.389 2.405L80.75 65.843C80.312 66.093 79.834 66.212 79.361 66.212z" fill="black" data-fill-palette-color="black"></path></svg></g></svg></g></svg></g></svg></g></svg></g><defs></defs></svg><rect width="395.52" height="75.12683953585677" fill="none" stroke="none" visibility="hidden"></rect></g></svg></g></svg>